<svg xmlns="http://www.w3.org/2000/svg" width="135.565" height="107.156" viewBox="0 0 135.565 107.156">
  <g id="Group_3578" data-name="Group 3578" transform="translate(-36.454 -578.053)">
    <g id="Group_3572" data-name="Group 3572" transform="translate(37.42 675.357)">
      <path id="Path_72648" data-name="Path 72648" d="M41.522,780.936a2.7,2.7,0,0,1-1.145-.55,2.925,2.925,0,0,1-1.056-2.034L38.13,773.07a3.016,3.016,0,0,0-.71-1.54v-.041h2.368v.013l1.332,6.426h.032l.764-3.87a7.325,7.325,0,0,0,.163-1.075,2.685,2.685,0,0,0-.491-1.454v-.041h2.291v.041a.76.76,0,0,0-.043.24,6.483,6.483,0,0,0,.252,1.527l1.046,4.632h.035l.915-4.209a5.636,5.636,0,0,0,.186-1.13,1.777,1.777,0,0,0-.372-1.059v-.041h1.843v.041l-2.236,9.433a3.728,3.728,0,0,1-1.124-.592,2.38,2.38,0,0,1-.915-1.626l-.807-3.416Z" transform="translate(-37.42 -771.376)" fill="#e1001b"/>
      <path id="Path_72649" data-name="Path 72649" d="M60.865,778.942c0,.734-.075,1.54.459,1.977v.043H58.389v-.043c.534-.438.458-1.243.458-1.977v-5.254c0-.733.076-1.54-.458-1.975v-.044h2.934v.044c-.547.436-.459,1.242-.459,1.975V775.3h1.953v-1.611c0-.733.077-1.54-.458-1.975v-.044h2.935v.044c-.535.436-.459,1.242-.459,1.975v5.254c0,.734-.076,1.54.459,1.977v.043H62.36v-.043c.535-.438.458-1.243.458-1.977v-2.217H60.865Z" transform="translate(-47.842 -771.465)" fill="#e1001b"/>
      <path id="Path_72650" data-name="Path 72650" d="M75.241,778.956c0,.734-.076,1.525.459,1.963v.043H72.766v-.043c.535-.438.457-1.229.457-1.963v-5.268c0-.733.078-1.54-.457-1.975v-.044H75.7v.044c-.535.436-.459,1.242-.459,1.975Z" transform="translate(-54.987 -771.465)" fill="#e1001b"/>
      <path id="Path_72651" data-name="Path 72651" d="M79.161,778.421a3.372,3.372,0,0,0,2.291,1.1,1.019,1.019,0,0,0,1.155-1c0-1.724-3.326-1.371-3.326-4.534a2.838,2.838,0,0,1,.806-2.048,2.723,2.723,0,0,1,1.9-.678,4.2,4.2,0,0,1,1.832.423v1.653a2.5,2.5,0,0,0-1.539-.664.881.881,0,0,0-.949.9c0,.678.633.946,1.036,1.173a5.088,5.088,0,0,1,1.451,1.058,3,3,0,0,1,.808,2.132,3.105,3.105,0,0,1-.872,2.288,2.83,2.83,0,0,1-2.119.735,4.712,4.712,0,0,1-2.115-.508Z" transform="translate(-58.165 -771.263)" fill="#e1001b"/>
      <path id="Path_72652" data-name="Path 72652" d="M97.075,779.974a3.242,3.242,0,0,0,.634.946v.043c-2.521,0-2.684,0-3.405-1.611l-1.134-2.528v2.118c0,.734-.076,1.54.459,1.977v.043H90.692v-.043c.536-.438.46-1.243.46-1.977v-5.254c0-.747.075-1.54-.46-1.975v-.044h2.937v.044c-.535.436-.459,1.242-.459,1.975v2.162l1.365-2.245a2.415,2.415,0,0,0,.5-1.13.95.95,0,0,0-.436-.762v-.044h2.672v.044l-2.412,3.726Z" transform="translate(-63.896 -771.465)" fill="#e1001b"/>
      <path id="Path_72653" data-name="Path 72653" d="M108.685,778.9a2.892,2.892,0,0,0,.481,2.02v.043H106.21v-.043c.535-.438.458-1.257.458-1.991v-2.174l-1.626-3.955a2.466,2.466,0,0,0-.687-1.087v-.044h2.53v.044l1.266,3.331.611-1.61a3.232,3.232,0,0,0,.25-.975.806.806,0,0,0-.338-.747v-.044h1.964v.044l-1.954,5.042Z" transform="translate(-70.687 -771.465)" fill="#e1001b"/>
      <path id="Path_72654" data-name="Path 72654" d="M149.166,773.423a2.789,2.789,0,0,0-1.822-.734c-1.494,0-1.922,1.553-1.922,3.261,0,1.949.731,3.531,2.357,3.531a4.219,4.219,0,0,0,2.357-.917l-.545,2.062a6.394,6.394,0,0,1-2.172.338,3.545,3.545,0,0,1-2.921-1.215,5.432,5.432,0,0,1-1.289-3.686,5.589,5.589,0,0,1,1.19-3.545,4.018,4.018,0,0,1,3.044-1.256l1.648.183Z" transform="translate(-89.996 -771.263)" fill="#e1001b"/>
      <path id="Path_72655" data-name="Path 72655" d="M161.75,771.263c2.291,0,3.972,1.723,3.972,4.829,0,3.079-1.887,4.872-4.1,4.872-2.237,0-3.971-1.878-3.971-4.857C157.648,773.1,159.535,771.263,161.75,771.263Zm-1.474,7.074a1.806,1.806,0,0,0,1.474,1.215,1.74,1.74,0,0,0,1.451-.987,3.991,3.991,0,0,0,.4-1.978c0-1.61-.491-3.911-1.985-3.911-1.288,0-1.856,1.6-1.856,3.05A7.446,7.446,0,0,0,160.276,778.337Z" transform="translate(-97.173 -771.263)" fill="#e1001b"/>
      <path id="Path_72656" data-name="Path 72656" d="M263.592,771.263c2.291,0,3.971,1.722,3.971,4.829,0,3.079-1.887,4.872-4.1,4.872-2.236,0-3.97-1.877-3.97-4.857C259.49,773.1,261.377,771.263,263.592,771.263Zm-1.474,7.074a1.8,1.8,0,0,0,1.474,1.215,1.737,1.737,0,0,0,1.45-.987,3.975,3.975,0,0,0,.4-1.978c0-1.609-.49-3.911-1.985-3.911-1.287,0-1.855,1.6-1.855,3.05A7.434,7.434,0,0,0,262.118,778.337Z" transform="translate(-147.789 -771.263)" fill="#e1001b"/>
      <path id="Path_72657" data-name="Path 72657" d="M176.842,779.366a2.144,2.144,0,0,0,1.145.24,2.03,2.03,0,0,0,1.55-.621l-.415,1.978h-4.757v-.043c.535-.438.459-1.229.459-1.963v-5.268c0-.733.076-1.54-.459-1.975v-.044H177.3v.044c-.534.436-.458,1.242-.458,1.991Z" transform="translate(-105.482 -771.465)" fill="#e1001b"/>
      <path id="Path_72658" data-name="Path 72658" d="M187.292,778.151l-.262.96a4.642,4.642,0,0,0-.2,1.017,1.051,1.051,0,0,0,.392.791v.043H184.99v-.043a3.7,3.7,0,0,0,.753-1.625l1.5-5.635a6.7,6.7,0,0,0,.239-1.13,1.035,1.035,0,0,0-.413-.817v-.044h2.672l2.062,7.273a4.126,4.126,0,0,0,.939,1.977v.043h-3.3v-.043a1,1,0,0,0,.447-.861,1.451,1.451,0,0,0-.087-.536l-.36-1.371Zm1.047-4.1h-.011l-.72,2.783h1.484Z" transform="translate(-110.762 -771.465)" fill="#e1001b"/>
      <path id="Path_72659" data-name="Path 72659" d="M224.619,779.366a2.143,2.143,0,0,0,1.145.24,2.027,2.027,0,0,0,1.549-.621l-.413,1.978h-4.757v-.043c.533-.438.458-1.229.458-1.963v-5.268c0-.733.075-1.54-.458-1.976v-.044h2.934v.044c-.535.436-.458,1.242-.458,1.991Z" transform="translate(-129.228 -771.465)" fill="#e1001b"/>
      <path id="Path_72660" data-name="Path 72660" d="M235.068,778.151l-.262.96a4.583,4.583,0,0,0-.2,1.017,1.057,1.057,0,0,0,.391.791v.043h-2.235v-.043a3.686,3.686,0,0,0,.753-1.625l1.5-5.635a6.563,6.563,0,0,0,.24-1.13,1.034,1.034,0,0,0-.414-.817v-.044h2.672l2.062,7.273a4.145,4.145,0,0,0,.94,1.977v.043h-3.294v-.043a1,1,0,0,0,.446-.861,1.482,1.482,0,0,0-.087-.536l-.359-1.371Zm1.047-4.1h-.01l-.721,2.783h1.483Z" transform="translate(-134.507 -771.465)" fill="#e1001b"/>
      <g id="Group_3567" data-name="Group 3567" transform="translate(43.637 0.128)">
        <path id="Path_72661" data-name="Path 72661" d="M128.439,775.368l1.347,2.469a8.52,8.52,0,0,0,.864-2.907l.03-.209h.644a7.545,7.545,0,0,1-1.15,3.838l1.3,2.327h-2.407l-.334-.607a2.753,2.753,0,0,1-1.865.8,2.552,2.552,0,0,1-1.907-.813,2.723,2.723,0,0,1-.787-1.966q0-1.572,2.043-2.631a4,4,0,0,1-.691-1.929,2.145,2.145,0,0,1,.638-1.6,2.212,2.212,0,0,1,1.621-.627,1.589,1.589,0,0,1,1.794,1.8A2.284,2.284,0,0,1,128.439,775.368Zm-1.866.972a1.188,1.188,0,0,0-.613,1.079,3.331,3.331,0,0,0,.568,1.76q.569.911,1.1.911a.977.977,0,0,0,.733-.493Zm1.526-1.6a1.442,1.442,0,0,0,.727-1.288q0-1.2-.906-1.2-.607,0-.607.715a1.58,1.58,0,0,0,.214.748Z" transform="translate(-124.173 -771.517)" fill="#e1001b"/>
      </g>
      <g id="Group_3568" data-name="Group 3568" transform="translate(86.814 0.309)">
        <path id="Path_72662" data-name="Path 72662" d="M215.323,771.877v.924h-2.95v3.069h2.5v.925h-2.5v4.29h-2.36v-9.207Z" transform="translate(-210.013 -771.877)" fill="#e1001b"/>
      </g>
      <g id="Group_3569" data-name="Group 3569" transform="translate(105.119 0.152)">
        <path id="Path_72663" data-name="Path 72663" d="M253.038,771.566l-2.36,9.458h-2.115l-2.157-9.458h2.384l1.609,7.165,1.758-7.165Z" transform="translate(-246.405 -771.566)" fill="#e1001b"/>
      </g>
      <g id="Group_3571" data-name="Group 3571" transform="translate(120.392 0.281)">
        <g id="Group_3570" data-name="Group 3570">
          <path id="Path_72664" data-name="Path 72664" d="M282.967,771.822v6.321q0,3.25-3.106,3.25t-3.092-3.25v-6.321h2.36v6.4a3.274,3.274,0,0,0,.307,1.7,1.273,1.273,0,0,0,1.135.455q1.6,0,1.6-2.236v-6.321Z" transform="translate(-276.769 -771.822)" fill="#e1001b"/>
          <path id="Path_72665" data-name="Path 72665" d="M291.638,781.241v-9.419h3.5a3.345,3.345,0,0,1,2.181.665,2.317,2.317,0,0,1-.936,4.013,2.386,2.386,0,0,1,1.165.849,4.765,4.765,0,0,1,.361,1.794,4.827,4.827,0,0,0,.459,2.1H295.8a4.722,4.722,0,0,1-.244-1.636l-.012-.558-.012-.7q0-1.629-1.133-1.629H294v4.527Zm2.36-5.307h.476q1.341,0,1.341-1.622t-1.341-1.622H294Z" transform="translate(-284.159 -771.822)" fill="#e1001b"/>
        </g>
      </g>
    </g>
    <g id="Group_3574" data-name="Group 3574" transform="translate(37.614 578.293)">
      <path id="Path_72666" data-name="Path 72666" d="M51.615,580.08c2.387,0,4.365,0,6.252,1.865a9.407,9.407,0,0,1,3.013,6.989,7.317,7.317,0,0,1-4.764,7.163c3.865.677,6.476,4.737,6.476,9.639a12.5,12.5,0,0,1-3.194,8.742c-2.429,2.653-4.814,2.708-8,2.708H38.22v-.167c2.2-1.751,1.889-4.908,1.889-7.895V588.088c0-2.93.315-6.144-1.889-7.837v-.171Zm-3.186,14.21a2.314,2.314,0,0,0,.852.227c2.159,0,3.284-2.425,3.284-4.848,0-2.2-.9-4.343-2.833-4.343a2.759,2.759,0,0,0-1.3.342Zm0,16.917a2.6,2.6,0,0,0,1.974.677c2.926,0,4.1-3.045,4.1-6.315,0-4.285-1.575-6.2-4.993-6.2H48.429Z" transform="translate(-38.012 -579.181)" fill="#fff" stroke="#fff" stroke-miterlimit="10" stroke-width="0.48"/>
      <path id="Path_72667" data-name="Path 72667" d="M97.782,610.813a9.124,9.124,0,0,0,4.721.961,8.528,8.528,0,0,0,6.386-2.483l-1.708,7.895H87.573v-.167c2.207-1.751,1.887-4.908,1.887-7.841V588.144c0-2.931.319-6.144-1.887-7.893v-.171h12.1v.171c-2.2,1.749-1.889,4.962-1.889,7.949Z" transform="translate(-62.54 -579.181)" fill="#fff" stroke="#fff" stroke-miterlimit="10" stroke-width="0.48"/>
      <path id="Path_72668" data-name="Path 72668" d="M139.511,605.963,138.43,609.8a17.9,17.9,0,0,0-.81,4.059,4.177,4.177,0,0,0,1.619,3.161v.167h-9.217v-.167c1.705-1.976,2.294-3.61,3.1-6.488l6.2-22.5a25.821,25.821,0,0,0,.99-4.51,4.108,4.108,0,0,0-1.709-3.272v-.171h11.015l8.5,29.045c1.08,3.607,1.3,4.9,3.867,7.895v.167H148.413v-.167a3.974,3.974,0,0,0,1.843-3.441,5.81,5.81,0,0,0-.359-2.142l-1.484-5.474Zm4.315-16.352h-.045l-2.966,11.11h6.112Z" transform="translate(-83.637 -579.181)" fill="#fff" stroke="#fff" stroke-miterlimit="10" stroke-width="0.48"/>
      <path id="Path_72669" data-name="Path 72669" d="M211.761,586.918a11.679,11.679,0,0,0-7.507-2.93c-6.16,0-7.916,6.2-7.916,13.024,0,7.785,3.013,14.1,9.714,14.1,3.5,0,6.7-1.633,9.707-3.665l-2.246,8.233a27.013,27.013,0,0,1-8.945,1.353c-4.588,0-8.455-.957-12.052-4.846-3.462-3.665-5.306-8.967-5.306-14.721,0-5.187,1.75-10.657,4.9-14.154a16.834,16.834,0,0,1,12.544-5.015l6.79.73Z" transform="translate(-112.06 -578.293)" fill="#fff" stroke="#fff" stroke-miterlimit="10" stroke-width="0.48"/>
      <path id="Path_72670" data-name="Path 72670" d="M270.994,613.239a12.906,12.906,0,0,0,2.607,3.781v.167c-10.384,0-11.063,0-14.03-6.426l-4.673-10.1v8.46c0,2.93-.313,6.144,1.889,7.895v.167h-12.1v-.167c2.2-1.751,1.889-4.964,1.889-7.895V588.144c0-2.986.311-6.144-1.889-7.893v-.171h12.1v.171c-2.2,1.749-1.889,4.962-1.889,7.893v8.629l5.617-8.967c.766-1.184,2.069-2.875,2.069-4.51a3.776,3.776,0,0,0-1.8-3.045v-.171H271.8v.171l-9.932,14.887Z" transform="translate(-140.628 -579.181)" fill="#fff" stroke="#fff" stroke-miterlimit="10" stroke-width="0.48"/>
      <g id="Group_3573" data-name="Group 3573" transform="translate(0 45.12)">
        <path id="Path_72671" data-name="Path 72671" d="M94.384,703.178l-1.369,4.878a22.763,22.763,0,0,0-1.03,5.156c0,2.009,1.03,2.942,2.056,4.016v.214H82.325v-.214c2.172-2.508,2.916-4.589,3.948-8.244l7.88-28.6c.344-1.434,1.259-4.23,1.259-5.736a5.233,5.233,0,0,0-2.168-4.158v-.212h14l10.8,36.914c1.374,4.585,1.657,6.237,4.913,10.034v.214H105.7v-.214c1.311-1.074,2.342-2.079,2.342-4.372a7.39,7.39,0,0,0-.456-2.722l-1.886-6.954Zm5.484-20.79h-.053l-3.772,14.123h7.769Z" transform="translate(-59.932 -669.131)" fill="#fff" stroke="#fff" stroke-miterlimit="10" stroke-width="0.48"/>
        <path id="Path_72672" data-name="Path 72672" d="M187.377,678.961a14.837,14.837,0,0,0-9.538-3.727c-7.833,0-10.062,7.88-10.062,16.554,0,9.9,3.83,17.925,12.345,17.925,4.458,0,8.516-2.079,12.343-4.66l-2.854,10.463a34.3,34.3,0,0,1-11.379,1.722c-5.824,0-10.739-1.217-15.315-6.163-4.4-4.661-6.739-11.4-6.739-18.71,0-6.6,2.227-13.552,6.231-17.992,4.338-4.661,10.34-6.379,15.944-6.379l8.626.933Z" transform="translate(-96.637 -667.995)" fill="#fff" stroke="#fff" stroke-miterlimit="10" stroke-width="0.48"/>
        <path id="Path_72673" data-name="Path 72673" d="M61.616,669.889a6.369,6.369,0,0,0-2.215,4.694c.1,2.813,0,30.669,0,30.669s1.854,11.859-17.809,11.859H37.806a30.728,30.728,0,0,0,7.816-4.987c2.034-1.782,3.318-5.933,3.318-11.937v-25.7s-.492-4.025-3.05-4.873C52.139,669.615,61.616,669.889,61.616,669.889Z" transform="translate(-37.806 -668.8)" fill="#fff" stroke="#fff" stroke-miterlimit="10" stroke-width="0.48"/>
        <path id="Path_72674" data-name="Path 72674" d="M263.818,712.424a16.548,16.548,0,0,0,3.318,4.8v.214c-13.2,0-14.061,0-17.829-8.171l-5.943-12.833v10.756c0,3.727-.4,7.811,2.4,10.034v.214H230.389v-.214c2.8-2.223,2.4-6.307,2.4-10.034V680.528c0-3.8.4-7.815-2.4-10.036v-.212H245.76v.212c-2.8,2.221-2.4,6.307-2.4,10.036v10.963L250.5,680.1c.972-1.505,2.626-3.659,2.626-5.734a4.811,4.811,0,0,0-2.282-3.871v-.212h14v.212l-12.628,18.923Z" transform="translate(-133.52 -669.131)" fill="#fff" stroke="#fff" stroke-miterlimit="10" stroke-width="0.48"/>
      </g>
    </g>
  </g>
</svg>
